<?xml version="1.0" encoding="utf-8"?>
<!-- Generator: Adobe Illustrator 27.6.0, SVG Export Plug-In . SVG Version: 6.00 Build 0)  -->
<svg version="1.1" id="Layer_1" xmlns="http://www.w3.org/2000/svg" xmlns:xlink="http://www.w3.org/1999/xlink" x="0px" y="0px"
	 viewBox="0 0 73.6 50.5" style="enable-background:new 0 0 73.6 50.5;" xml:space="preserve">
<style type="text/css">
	.st0{fill:#2C2C2C;}
</style>
<g id="Ebene_2">
	<g id="Isolationsmodus">
		<path class="st0" d="M24.9,23.4c-1.8,0-3.5,0.8-4.6,2.1l-0.4,0.4l2.6,2l0.3-0.4c0.5-0.6,1.3-1,2.1-1c1.4,0,2.6,1.2,2.6,2.6
			c0,1.4-1.2,2.6-2.6,2.6c0,0,0,0,0,0c-0.7,0-1.4-0.2-1.9-0.7v-2.4h-3.3v3.5l0.1,0.1c1.1,1.7,3.1,2.7,5.1,2.7c3.2,0.1,5.9-2.3,6-5.5
			c0.1-3.2-2.3-5.9-5.5-6C25.3,23.4,25.1,23.4,24.9,23.4z"/>
		<path class="st0" d="M48.9,34.9c2.1,0,4-1,5.1-2.7l0.1-0.1v-3.5h-3.3V31c-0.5,0.5-1.2,0.8-1.9,0.8c-1.4,0-2.6-1.2-2.6-2.6
			c0-1.4,1.2-2.6,2.6-2.6c0,0,0,0,0,0c0.8,0,1.6,0.4,2.1,1l0.3,0.4l2.6-2l-0.4-0.4c-1.2-1.4-2.9-2.1-4.7-2.1c-3.2-0.1-5.9,2.3-6,5.5
			c-0.1,3.2,2.3,5.9,5.5,6C48.5,35,48.7,35,48.9,34.9L48.9,34.9z"/>
		<path class="st0" d="M72.6,12.4c-4.3-3.9-9.9-6-15.7-6c-7.8-0.1-15,4.1-18.7,11l-0.5,1l-0.2-1.1C36,7.3,27.2,0,16.8,0
			C10.9,0,5.3,2.1,1,6.1L0,7l2.6,2.3l0.8-0.7C7,5.2,11.8,3.4,16.8,3.4c7-0.2,13.4,4,16.2,10.4l0.6,1.5l-1.2-1.1
			c-7.7-7.3-19.9-7-27.2,0.7s-7,19.9,0.7,27.2c3.6,3.4,8.3,5.3,13.2,5.3c4.1,0,8.1-1.3,11.4-3.8l0.2-0.2l6.8,7.2l6.7-7.7l0.2,0.1
			c8.2,4.1,18.1,0.8,22.2-7.4s0.8-18.1-7.4-22.2c-2.3-1.1-4.8-1.7-7.4-1.7c-0.6,0-1.1,0-1.7,0.1l-2.7,0.3l2.5-0.9
			c2.1-0.8,4.4-1.2,6.6-1.2c4.9,0,9.7,1.8,13.4,5.1l0.8,0.8l2.6-2.3L72.6,12.4z M19.2,44.1c-8.8,0-16-7.2-16-16s7.2-16,16-16
			s16,7.2,16,16S28.1,44.1,19.2,44.1L19.2,44.1z M37.6,45.8l-4.3-4.5l0.2-0.2c1.4-1.5,2.5-3.2,3.3-5l0.3-0.7l0.3,0.6
			c1,1.9,2.4,3.5,4,4.9l0.3,0.2L37.6,45.8z M52,14.8c7.4,0,13.4,6,13.4,13.3c0,7.4-6,13.4-13.3,13.4s-13.4-6-13.4-13.3c0,0,0,0,0,0
			C38.7,20.8,44.6,14.8,52,14.8z"/>
	</g>
</g>
</svg>
