<?xml version="1.0" encoding="UTF-8" standalone="no"?>
<svg
   xmlns:dc="http://purl.org/dc/elements/1.1/"
   xmlns:cc="http://creativecommons.org/ns#"
   xmlns:rdf="http://www.w3.org/1999/02/22-rdf-syntax-ns#"
   xmlns:svg="http://www.w3.org/2000/svg"
   xmlns="http://www.w3.org/2000/svg"
   xmlns:sodipodi="http://sodipodi.sourceforge.net/DTD/sodipodi-0.dtd"
   xmlns:inkscape="http://www.inkscape.org/namespaces/inkscape"
   viewBox="0 0 498.82 138.62"
   version="1.1"
   id="svg26"
   sodipodi:docname="logodidact_weiss.svg"
   inkscape:version="1.0.1 (3bc2e813f5, 2020-09-07)">
  <metadata
     id="metadata30">
    <rdf:RDF>
      <cc:Work
         rdf:about="">
        <dc:format>image/svg+xml</dc:format>
        <dc:type
           rdf:resource="http://purl.org/dc/dcmitype/StillImage" />
        <dc:title></dc:title>
      </cc:Work>
    </rdf:RDF>
  </metadata>
  <sodipodi:namedview
     pagecolor="#ffffff"
     bordercolor="#666666"
     borderopacity="1"
     objecttolerance="10"
     gridtolerance="10"
     guidetolerance="10"
     inkscape:pageopacity="0"
     inkscape:pageshadow="2"
     inkscape:window-width="1920"
     inkscape:window-height="1027"
     id="namedview28"
     showgrid="false"
     inkscape:zoom="1.0444649"
     inkscape:cx="-6.7847881"
     inkscape:cy="-22.343484"
     inkscape:window-x="-8"
     inkscape:window-y="-8"
     inkscape:window-maximized="1"
     inkscape:current-layer="Ebene_2" />
  <defs
     id="defs4">
    <style
       id="style2">.cls-1{fill:#1d1e1b;}</style>
  </defs>
  <g
     id="Ebene_2"
     data-name="Ebene 2">
    <g
       id="Ebene_1-2"
       data-name="Ebene 1"
       style="fill:#ffffff">
      <path
         class="cls-1"
         d="M198.19,89.27c-1.81-2.1-4.65-3-10.09-3H174.64l-14.9,41H173.2c5.92,0,10.83-1.43,14.13-4.2,3.89-3.34,7.9-9.64,10.4-16.51,2.71-7.45,2.92-14.32.46-17.28m-4.83,44.48c-6.35,3.82-11.41,4.87-24.3,4.87h-27L165.22,75h27c13.17,0,19.58,2.58,22.38,8.79,2.06,4.58,1.26,13.84-2.07,23-4.52,12.41-11.57,22.34-19.19,27"
         id="path6"
         style="fill:#ffffff" />
      <polygon
         class="cls-1"
         points="210.49 138.62 233.66 74.95 247.22 74.95 224.04 138.62 210.49 138.62"
         id="polygon8"
         style="fill:#ffffff" />
      <path
         class="cls-1"
         d="M293.17,89.27c-1.82-2.1-4.65-3-10.09-3H269.62l-14.91,41h13.46c5.92,0,10.83-1.43,14.13-4.2,3.89-3.34,7.9-9.64,10.4-16.51,2.71-7.45,2.92-14.32.47-17.28m-4.83,44.48c-6.36,3.82-11.42,4.87-24.3,4.87H237L260.2,75h27c13.17,0,19.58,2.58,22.38,8.79,2.06,4.58,1.27,13.84-2.07,23-4.51,12.41-11.56,22.34-19.18,27"
         id="path10"
         style="fill:#ffffff" />
      <path
         class="cls-1"
         d="M348.46,90.23,331.3,112.47h18.13Zm.62,48.39-.73-14.79H324.11l-11.5,14.79H296.67L346.19,75h15.56l3.17,63.66Z"
         id="path12"
         style="fill:#ffffff" />
      <path
         class="cls-1"
         d="M395,138.62c-11,0-15.67-1.53-18.9-6.3-3.63-5.25-3.29-14,.88-25.48,5.17-14.23,14.09-24.82,24.59-29,4.25-1.72,11-2.86,17.17-2.86H440.3l-4.13,11.35H416.22c-12.12,0-18.78,5.44-24,19.67-5.62,15.46-3.06,21.28,9.53,21.28h19.48l-4.14,11.36Z"
         id="path14"
         style="fill:#ffffff" />
      <polygon
         class="cls-1"
         points="473.68 86.31 454.64 138.62 441.09 138.62 460.13 86.31 439.8 86.31 443.93 74.95 498.81 74.95 494.68 86.31 473.68 86.31"
         id="polygon16"
         style="fill:#ffffff" />
      <path
         class="cls-1"
         d="M2,81.69c-3.1,8-2.52,16.1,1.59,22.1s11.25,9.33,19.69,9.33h114l4.38-12H23.25c-4.48,0-7.94-1.46-9.76-4.1s-2-6.6-.29-11l4.1-10.62H4.4Z"
         id="path18"
         style="fill:#ffffff" />
      <path
         class="cls-1"
         d="M362,44.21c-4.07-5.92-11.24-9.32-19.68-9.32H240.1l-4.38,12H342.35c4.48,0,7.94,1.45,9.75,4.09,1.61,2.34,1.9,5.56.87,9.2h12.3a21.93,21.93,0,0,0-3.24-16"
         id="path20"
         style="fill:#ffffff" />
      <path
         class="cls-1"
         d="M189.77,52.12l-.09.08a5.89,5.89,0,0,1-3.82-5,14.24,14.24,0,0,1,0-3.69,15.85,15.85,0,0,1,1.07-4c.16-.52.33-1,.51-1.55a8.32,8.32,0,0,1,.68-1.55c.28-.51.59-1,.9-1.54s.64-1,1-1.55a16.88,16.88,0,0,1,3.05-3.44A19.56,19.56,0,0,1,197,27.35a18.57,18.57,0,0,1,2.05-.91,11.21,11.21,0,0,1,2.1-.55,11.37,11.37,0,0,1,2-.35,12.82,12.82,0,0,1,2,0c.28.06.55.1.81.13s.52.07.81.13l.71.21a4.6,4.6,0,0,1,.71.31,5.85,5.85,0,0,1,2.39,2,6.51,6.51,0,0,1,1,3,16.52,16.52,0,0,1,0,3.44,17,17,0,0,1-.82,3.7l-.7,1.72a12.16,12.16,0,0,1-.88,1.72c-.29.58-.57,1.12-.82,1.64a11.38,11.38,0,0,1-.89,1.46,20.34,20.34,0,0,1-3.25,3.65,17.31,17.31,0,0,1-4,2.63,16,16,0,0,1-4.32,1.5,11.49,11.49,0,0,1-4.09,0,1.51,1.51,0,0,1-.51-.08l-.5-.17a3.16,3.16,0,0,1-.5-.22l-.42-.21m20,4.21v.09a34.15,34.15,0,0,0,4.32-3.57,30.38,30.38,0,0,0,3.62-4.26,44,44,0,0,0,3.09-4.6A29.32,29.32,0,0,0,223,39.22a23.2,23.2,0,0,0,1.32-4.73,36.58,36.58,0,0,0,.45-4.65,17.26,17.26,0,0,0-.56-4.21A12.61,12.61,0,0,0,222.64,22a12.43,12.43,0,0,0-2.57-2.76,13,13,0,0,0-3.62-2,27.55,27.55,0,0,0-4.26-1.21,24.12,24.12,0,0,0-4.6-.43,31.77,31.77,0,0,0-5,.43,42.6,42.6,0,0,0-5.21,1.21,31,31,0,0,0-5,2A38,38,0,0,0,187.64,22a32.13,32.13,0,0,0-4.33,3.61,41.12,41.12,0,0,0-3.7,4.21,37.66,37.66,0,0,0-3,4.65,47,47,0,0,0-2.19,4.73A38.12,38.12,0,0,0,173.08,44a25,25,0,0,0-.57,4.6,15,15,0,0,0,.6,4.26,13.77,13.77,0,0,0,1.62,3.57,10.69,10.69,0,0,0,2.57,2.79,14.74,14.74,0,0,0,3.53,1.94,27.84,27.84,0,0,0,4.32,1.07,28.43,28.43,0,0,0,4.74.39c.58,0,1.13,0,1.65,0l1.67-.13c1.11-.12,2.23-.28,3.35-.48a30.12,30.12,0,0,0,3.38-.81,29.77,29.77,0,0,0,5.08-2,38.36,38.36,0,0,0,4.72-2.84m-68-4-.1.09h-3a12.4,12.4,0,0,1-1.85-.13c-.6-.09-1.19-.18-1.75-.3a6,6,0,0,1-1.55-.52,5.1,5.1,0,0,1-1.34-.94,6.89,6.89,0,0,1-1.53-2.32,6.46,6.46,0,0,1-.44-2.84,19.85,19.85,0,0,1,.59-3.18A23.48,23.48,0,0,1,131.89,39a5.34,5.34,0,0,0,.18-.52,5.17,5.17,0,0,1,.18-.51,1.27,1.27,0,0,1,.08-.31.8.8,0,0,1,.15-.21,1.81,1.81,0,0,0,.16-.3.9.9,0,0,0,.07-.22,20.61,20.61,0,0,1,3.76-6.06,11.4,11.4,0,0,1,4.94-3.14,40.89,40.89,0,0,1,5.42-1.16,39.59,39.59,0,0,1,5.6-.39h2.26a3.86,3.86,0,0,0,.81.09h1.57a2.94,2.94,0,0,0,.74-.09L148,52.37Zm15.51,7.74,16.41-43.68-22.07.08a45,45,0,0,0-4.81.26,47.29,47.29,0,0,0-4.77.77,25.5,25.5,0,0,0-4.77,1.55,27.93,27.93,0,0,0-4.8,2.75,30,30,0,0,0-3.84,3.06,33.62,33.62,0,0,0-3.29,3.57q-1.5,1.89-2.74,3.82a30.87,30.87,0,0,0-2.15,3.92,5.59,5.59,0,0,0-.38.73c-.12.25-.25.53-.39.81s-.17.48-.25.73a5.6,5.6,0,0,1-.35.82c-.08.23-.15.45-.2.65a2.31,2.31,0,0,1-.28.64.9.9,0,0,1-.07.22.52.52,0,0,0-.06.21,2.16,2.16,0,0,1-.09.39,3.16,3.16,0,0,1-.18.47,30.53,30.53,0,0,0-.82,4.09,25.71,25.71,0,0,0-.2,4,12.88,12.88,0,0,0,2.14,6.88,9.77,9.77,0,0,0,2.77,3,8.19,8.19,0,0,0,3.56,1.34,37.11,37.11,0,0,0,4.24.47c1.53.08,3.13.13,4.81.13h9.82a13.78,13.78,0,0,1-1.53,3,8.33,8.33,0,0,1-2.23,2.2A8,8,0,0,1,138,68.28a18.92,18.92,0,0,1-3.45.61H112.93l-3.4,9.2L133.25,78a28,28,0,0,0,8.33-1.16,21.18,21.18,0,0,0,6.66-3.4,28.31,28.31,0,0,0,5.07-5.67,37,37,0,0,0,4-7.66m-78-8-.1.08a5.89,5.89,0,0,1-3.82-5,14.24,14.24,0,0,1,0-3.69,16.29,16.29,0,0,1,1.07-4L77,38a9,9,0,0,1,.68-1.55c.29-.51.59-1,.9-1.54s.65-1,1-1.55a16.88,16.88,0,0,1,3-3.44,19.85,19.85,0,0,1,3.92-2.58,19.44,19.44,0,0,1,2-.91,11.62,11.62,0,0,1,2.1-.55,11.37,11.37,0,0,1,2-.35,12.82,12.82,0,0,1,2,0c.28.06.55.1.81.13s.53.07.81.13L97,26a4.94,4.94,0,0,1,.7.31,5.88,5.88,0,0,1,2.4,2,6.39,6.39,0,0,1,1,3,16.52,16.52,0,0,1,0,3.44,17,17,0,0,1-.82,3.7c-.23.58-.47,1.15-.7,1.72a12.16,12.16,0,0,1-.88,1.72l-.82,1.64A10.35,10.35,0,0,1,96.92,45a20.34,20.34,0,0,1-3.25,3.65,17.25,17.25,0,0,1-4,2.63,16.07,16.07,0,0,1-4.33,1.5,11.49,11.49,0,0,1-4.09,0,1.51,1.51,0,0,1-.51-.08l-.5-.17a3.16,3.16,0,0,1-.5-.22l-.41-.21m20,4.21v.09a34.15,34.15,0,0,0,4.32-3.57,29.72,29.72,0,0,0,3.62-4.26,44,44,0,0,0,3.09-4.6,28.51,28.51,0,0,0,2.24-4.77,23.2,23.2,0,0,0,1.32-4.73,36.58,36.58,0,0,0,.45-4.65,17.26,17.26,0,0,0-.56-4.21A12.87,12.87,0,0,0,112.19,22a12.72,12.72,0,0,0-2.58-2.76,13.12,13.12,0,0,0-3.61-2,28.2,28.2,0,0,0-4.26-1.21,24.3,24.3,0,0,0-4.61-.43,31.77,31.77,0,0,0-5,.43,42.45,42.45,0,0,0-5.2,1.21,31.06,31.06,0,0,0-5,2A38,38,0,0,0,77.18,22a32.13,32.13,0,0,0-4.33,3.61,41.12,41.12,0,0,0-3.7,4.21,36.41,36.41,0,0,0-3,4.65A43,43,0,0,0,64,39.22,35,35,0,0,0,62.63,44a25.06,25.06,0,0,0-.58,4.6,15.38,15.38,0,0,0,.6,4.26,14.46,14.46,0,0,0,1.62,3.57,10.73,10.73,0,0,0,2.58,2.79,14.36,14.36,0,0,0,3.53,1.94,27.43,27.43,0,0,0,4.31,1.07,28.43,28.43,0,0,0,4.74.39c.58,0,1.13,0,1.65,0l1.67-.13c1.11-.12,2.23-.28,3.35-.48a30.81,30.81,0,0,0,3.39-.81,29.66,29.66,0,0,0,5.07-2,39.22,39.22,0,0,0,4.73-2.84M35.93,61.75H52.52l3.76-10.24-15.47.09A20.86,20.86,0,0,1,33,50.48,4.05,4.05,0,0,1,30.17,47a21.74,21.74,0,0,1,.63-5.55,54.38,54.38,0,0,1,2.41-7.61L46,0H32.86L19,36.81c-.64,1.72-1.19,3.39-1.65,5a45.93,45.93,0,0,0-1.12,4.86,13.51,13.51,0,0,0-.09,4.56,11.26,11.26,0,0,0,1.52,4.12,11.71,11.71,0,0,0,3.17,3.7,10,10,0,0,0,4.24,1.81c1.65.29,3.38.5,5.19.64s3.7.22,5.67.22"
         id="path22"
         style="fill:#ffffff" />
    </g>
  </g>
</svg>
