<svg xmlns="http://www.w3.org/2000/svg" viewBox="0 0 348.71 13.69"><defs><style>.cls-1{fill:#159739;}.cls-2{fill:#a6c739;}.cls-3{fill:#f4b821;}.cls-4{fill:#ef8123;}.cls-5{fill:#cc1d1e;}.cls-6{fill:#9d4c97;}.cls-7{fill:#4262ab;}.cls-8{fill:#3294d0;}.cls-9{fill:#fff;}</style></defs><g id="Ebene_2" data-name="Ebene 2"><g id="Ebene_1-2" data-name="Ebene 1"><circle class="cls-1" cx="214.56" cy="6.85" r="6.85"/><circle class="cls-2" cx="232.75" cy="6.85" r="6.85"/><circle class="cls-3" cx="250.93" cy="6.85" r="6.85"/><circle class="cls-4" cx="269.12" cy="6.85" r="6.85"/><circle class="cls-5" cx="287.31" cy="6.85" r="6.85"/><circle class="cls-6" cx="305.5" cy="6.85" r="6.85"/><circle class="cls-7" cx="323.68" cy="6.85" r="6.85"/><circle class="cls-8" cx="341.87" cy="6.85" r="6.85"/><path class="cls-9" d="M.5,9.59a6.12,6.12,0,0,0,2.7.68c1.12,0,1.71-.47,1.71-1.17S4.4,8,3.11,7.58C1.31,7,.14,6,.14,4.39c0-1.84,1.54-3.25,4.09-3.25A6.58,6.58,0,0,1,7,1.69l-.55,2a5.06,5.06,0,0,0-2.25-.52c-1.06,0-1.57.48-1.57,1s.61,1,2,1.52c1.9.71,2.8,1.7,2.8,3.22,0,1.81-1.39,3.35-4.35,3.35A7,7,0,0,1,0,11.61Z"/><path class="cls-9" d="M9.06,1.46a19.22,19.22,0,0,1,3.15-.22,5.87,5.87,0,0,1,3.18.61A2.33,2.33,0,0,1,16.69,4a2.42,2.42,0,0,1-1.78,2.3v0A2.69,2.69,0,0,1,17.06,9a2.87,2.87,0,0,1-1.12,2.29c-.79.63-2.1,1-4.24,1a18.82,18.82,0,0,1-2.64-.16Zm2.41,4.13h.8c1.28,0,2-.53,2-1.33S13.62,3,12.51,3a6.8,6.8,0,0,0-1,.07Zm0,4.79a8.28,8.28,0,0,0,.95,0c1.1,0,2.08-.42,2.08-1.55s-1-1.52-2.19-1.52h-.84Z"/><path class="cls-9" d="M25.14,7.54h-4v2.57H25.6v2H18.72V1.32h6.66v2H21.17V5.56h4Z"/><path class="cls-9" d="M30.77,6.46c0-.8,0-1.46-.07-2.1H32L32,5.64h0a2.85,2.85,0,0,1,2.56-1.46c1.08,0,2.74.64,2.74,3.3v4.63H36V7.64c0-1.25-.46-2.29-1.79-2.29a2,2,0,0,0-1.89,1.44,2.19,2.19,0,0,0-.09.66v4.66H30.77Z"/><path class="cls-9" d="M40.43,8.49a2.49,2.49,0,0,0,2.66,2.69,5.1,5.1,0,0,0,2.14-.4l.24,1a6.29,6.29,0,0,1-2.57.48,3.6,3.6,0,0,1-3.81-3.91c0-2.34,1.37-4.18,3.63-4.18,2.53,0,3.2,2.23,3.2,3.65a4.67,4.67,0,0,1-.05.66Zm4.13-1a2,2,0,0,0-2-2.29,2.33,2.33,0,0,0-2.16,2.29Z"/><path class="cls-9" d="M49.36,2.13V4.36h2V5.43h-2V9.61c0,1,.27,1.5,1.06,1.5a3.06,3.06,0,0,0,.81-.09l.07,1.05a3.31,3.31,0,0,1-1.25.2,1.92,1.92,0,0,1-1.52-.6,2.84,2.84,0,0,1-.55-2V5.43h-1.2V4.36H48V2.5Z"/><path class="cls-9" d="M53.66,4.36l1,3.94c.22.86.43,1.66.57,2.46h.05c.18-.78.43-1.61.69-2.45l1.26-3.95h1.19l1.2,3.87c.29.93.51,1.75.69,2.53h0A20.78,20.78,0,0,1,61,8.25l1.1-3.89h1.39L61,12.11H59.7l-1.19-3.7c-.27-.87-.49-1.63-.69-2.55h0a22.68,22.68,0,0,1-.7,2.56l-1.25,3.69H54.56L52.22,4.36Z"/><path class="cls-9" d="M71.73,8.17a3.79,3.79,0,0,1-3.86,4.11,3.68,3.68,0,0,1-3.71-4A3.78,3.78,0,0,1,68,4.18,3.67,3.67,0,0,1,71.73,8.17Zm-6.15.08c0,1.7,1,3,2.36,3s2.35-1.27,2.35-3c0-1.32-.66-3-2.32-3S65.58,6.78,65.58,8.25Z"/><path class="cls-9" d="M73.5,6.78c0-.92,0-1.7-.06-2.42h1.23l0,1.52h.06a2.34,2.34,0,0,1,2.15-1.7,1.62,1.62,0,0,1,.4.05V5.56a2.28,2.28,0,0,0-.48,0A2,2,0,0,0,75,7.32,4.25,4.25,0,0,0,74.9,8v4.13H73.5Z"/><path class="cls-9" d="M80.19,7.91h0c.2-.27.47-.61.69-.88l2.27-2.67h1.7l-3,3.18,3.41,4.57H83.58L80.91,8.39l-.72.8v2.92H78.8V.74h1.39Z"/><path class="cls-9" d="M89.5,10.67a3.72,3.72,0,0,0,1.86.56c1,0,1.5-.52,1.5-1.16s-.4-1-1.44-1.42c-1.39-.5-2-1.27-2-2.19a2.4,2.4,0,0,1,2.68-2.28,3.92,3.92,0,0,1,1.9.48l-.35,1A3,3,0,0,0,92,5.24c-.84,0-1.3.48-1.3,1.06s.46.92,1.47,1.31c1.35.51,2,1.18,2,2.34,0,1.36-1,2.32-2.89,2.32a4.42,4.42,0,0,1-2.18-.53Z"/><path class="cls-9" d="M103,8.17a3.78,3.78,0,0,1-3.86,4.11,3.68,3.68,0,0,1-3.71-4,3.79,3.79,0,0,1,3.84-4.12A3.67,3.67,0,0,1,103,8.17Zm-6.15.08c0,1.7,1,3,2.36,3s2.35-1.27,2.35-3c0-1.32-.66-3-2.32-3S96.89,6.78,96.89,8.25Z"/><path class="cls-9" d="M104.81.74h1.41V12.11h-1.41Z"/><path class="cls-9" d="M115.07,10c0,.8,0,1.51.07,2.12h-1.25l-.08-1.27h0a2.91,2.91,0,0,1-2.56,1.44c-1.22,0-2.68-.67-2.68-3.39V4.36H110V8.65c0,1.47.45,2.46,1.73,2.46a2,2,0,0,0,2-2V4.36h1.41Z"/><path class="cls-9" d="M119.1,2.13V4.36h2V5.43h-2V9.61c0,1,.28,1.5,1.06,1.5A3.15,3.15,0,0,0,121,11l.06,1.05a3.24,3.24,0,0,1-1.25.2,1.94,1.94,0,0,1-1.52-.6,2.85,2.85,0,0,1-.54-2V5.43h-1.2V4.36h1.2V2.5Z"/><path class="cls-9" d="M124.27,2.18a.87.87,0,1,1-1.74,0,.86.86,0,0,1,.88-.88A.84.84,0,0,1,124.27,2.18Zm-1.57,9.93V4.36h1.41v7.75Z"/><path class="cls-9" d="M133.46,8.17a3.79,3.79,0,0,1-3.86,4.11,3.67,3.67,0,0,1-3.71-4,3.78,3.78,0,0,1,3.84-4.12A3.67,3.67,0,0,1,133.46,8.17Zm-6.15.08c0,1.7,1,3,2.35,3S132,10,132,8.22c0-1.32-.66-3-2.32-3S127.31,6.78,127.31,8.25Z"/><path class="cls-9" d="M135.23,6.46c0-.8,0-1.46-.06-2.1h1.25l.08,1.28h0a2.84,2.84,0,0,1,2.56-1.46c1.07,0,2.74.64,2.74,3.3v4.63h-1.41V7.64c0-1.25-.47-2.29-1.8-2.29a2,2,0,0,0-1.89,1.44,2.19,2.19,0,0,0-.09.66v4.66h-1.41Z"/><path class="cls-9" d="M143.92,10.67a3.68,3.68,0,0,0,1.85.56c1,0,1.51-.52,1.51-1.16s-.4-1-1.44-1.42c-1.39-.5-2.05-1.27-2.05-2.19a2.39,2.39,0,0,1,2.67-2.28,3.93,3.93,0,0,1,1.91.48l-.35,1a3.07,3.07,0,0,0-1.59-.45c-.83,0-1.3.48-1.3,1.06s.47.92,1.48,1.31c1.34.51,2,1.18,2,2.34,0,1.36-1.06,2.32-2.9,2.32a4.37,4.37,0,0,1-2.17-.53Z"/><path class="cls-9" d="M162.1,11.63a10.23,10.23,0,0,1-3.32.59,5.54,5.54,0,0,1-4-1.43,5.51,5.51,0,0,1-1.5-4c0-3.22,2.22-5.57,5.84-5.57a6.79,6.79,0,0,1,2.69.49l-.34,1.14a5.54,5.54,0,0,0-2.38-.47,4,4,0,0,0-4.34,4.34c0,2.74,1.65,4.36,4.16,4.36a4.56,4.56,0,0,0,1.86-.29V7.56h-2.2V6.44h3.56Z"/><path class="cls-9" d="M164.17,6.46c0-.8,0-1.46-.06-2.1h1.23l.07,1.25h0a2.69,2.69,0,0,1,2.44-1.43,2.29,2.29,0,0,1,2.19,1.56h0a3.13,3.13,0,0,1,.87-1,2.58,2.58,0,0,1,1.71-.55c1,0,2.54.68,2.54,3.36v4.57h-1.37V7.72c0-1.49-.55-2.38-1.68-2.38a1.83,1.83,0,0,0-1.67,1.28,2.39,2.39,0,0,0-.11.7v4.79H169V7.46c0-1.23-.54-2.12-1.61-2.12a1.94,1.94,0,0,0-1.75,1.4,2,2,0,0,0-.11.69v4.68h-1.38Z"/><path class="cls-9" d="M177.45,12.11c0-.53.07-1.32.07-2V.74h1.39V5.61h0a2.88,2.88,0,0,1,2.64-1.43c1.92,0,3.28,1.6,3.27,4,0,2.77-1.75,4.14-3.47,4.14a2.77,2.77,0,0,1-2.6-1.45h-.05l-.06,1.28ZM178.91,9a2.74,2.74,0,0,0,.06.51,2.18,2.18,0,0,0,2.12,1.65c1.47,0,2.35-1.2,2.35-3,0-1.55-.8-2.88-2.3-2.88A2.25,2.25,0,0,0,179,7a2.9,2.9,0,0,0-.08.58Z"/><path class="cls-9" d="M188.06,1.32V5.83h5.22V1.32h1.41V12.11h-1.41V7.05h-5.22v5.06h-1.39V1.32Z"/></g></g></svg>